<?xml version="1.0" encoding="UTF-8" standalone="no"?>
<svg
   xmlns:dc="http://purl.org/dc/elements/1.1/"
   xmlns:cc="http://creativecommons.org/ns#"
   xmlns:rdf="http://www.w3.org/1999/02/22-rdf-syntax-ns#"
   xmlns:svg="http://www.w3.org/2000/svg"
   xmlns="http://www.w3.org/2000/svg"
   viewBox="0 0 462.43885 572.60038"
   height="572.6004"
   width="462.43887"
   xml:space="preserve"
   version="1.1"
   id="svg2"><metadata
     id="metadata8"><rdf:RDF><cc:Work
         rdf:about=""><dc:format>image/svg+xml</dc:format><dc:type
           rdf:resource="http://purl.org/dc/dcmitype/StillImage" /><dc:title></dc:title></cc:Work></rdf:RDF></metadata><defs
     id="defs6"><clipPath
       id="clipPath16"
       clipPathUnits="userSpaceOnUse"><path
         id="path18"
         d="m 0,850.39 850.39,0 L 850.39,0 0,0 0,850.39 Z" /></clipPath><clipPath
       id="clipPath32"
       clipPathUnits="userSpaceOnUse"><path
         id="path34"
         d="m 0,850.39 850.39,0 L 850.39,0 0,0 0,850.39 Z" /></clipPath></defs><g
     transform="matrix(1.25,0,0,-1.25,-303.49538,841.00212)"
     id="g10"><g
       id="g28"><g
         clip-path="url(#clipPath32)"
         id="g30"><g
           transform="translate(434.6904,593.2054)"
           id="g36"><path
             id="path38"
             style="fill:none;stroke:#1d1d1b;stroke-width:24;stroke-linecap:butt;stroke-linejoin:round;stroke-miterlimit:10;stroke-dasharray:none;stroke-opacity:1"
             d="m 0,0 122.348,0 c 24.04,0 43.709,-19.669 43.709,-43.708 l 0,-228.18 0,-50.887 c 0,-24.04 -19.669,-43.709 -43.709,-43.709 l -45.908,0 -139.645,0 c -24.04,0 -43.708,19.669 -43.708,43.709 l 0,209.359 L 0,0 Z" /></g><g
           transform="translate(427.7441,582.6805)"
           id="g40"><path
             id="path42"
             style="fill:none;stroke:#1d1d1b;stroke-width:24;stroke-linecap:butt;stroke-linejoin:round;stroke-miterlimit:10;stroke-dasharray:none;stroke-opacity:1"
             d="m 0,0 0,-50.888 c 0,-24.039 -19.668,-43.708 -43.708,-43.708 l -45.908,0" /></g><g
           transform="translate(301.3193,294.3177)"
           id="g44"><path
             id="path46"
             style="fill:none;stroke:#1d1d1b;stroke-width:24;stroke-linecap:butt;stroke-linejoin:round;stroke-miterlimit:10;stroke-dasharray:none;stroke-opacity:1"
             d="m 0,0 -2.815,0 c -24.039,0 -43.708,19.669 -43.708,43.708 l 0,209.36 106.912,113.416 122.349,0 c 24.039,0 43.708,-19.669 43.708,-43.709 l 0,-1.131" /></g><g
           transform="translate(354.7632,650.2767)"
           id="g48"><path
             id="path50"
             style="fill:none;stroke:#1d1d1b;stroke-width:24;stroke-linecap:butt;stroke-linejoin:round;stroke-miterlimit:10;stroke-dasharray:none;stroke-opacity:1"
             d="m 0,0 0,-50.888 c 0,-24.04 -19.668,-43.708 -43.708,-43.708 l -45.908,0" /></g><g
           transform="translate(400.7588,423.3295)"
           id="g52"><path
             id="path54"
             style="fill:none;stroke:#1d1d1b;stroke-width:18;stroke-linecap:round;stroke-linejoin:round;stroke-miterlimit:10;stroke-dasharray:none;stroke-opacity:1"
             d="M 0,0 127.007,0" /></g><g
           transform="translate(400.7588,385.8158)"
           id="g56"><path
             id="path58"
             style="fill:none;stroke:#1d1d1b;stroke-width:18;stroke-linecap:round;stroke-linejoin:round;stroke-miterlimit:10;stroke-dasharray:none;stroke-opacity:1"
             d="M 0,0 127.007,0" /></g><g
           transform="translate(400.7588,348.3031)"
           id="g60"><path
             id="path62"
             style="fill:none;stroke:#1d1d1b;stroke-width:18;stroke-linecap:round;stroke-linejoin:round;stroke-miterlimit:10;stroke-dasharray:none;stroke-opacity:1"
             d="M 0,0 127.007,0" /></g><g
           transform="translate(400.7588,310.3031)"
           id="g64"><path
             id="path66"
             style="fill:none;stroke:#1d1d1b;stroke-width:18;stroke-linecap:round;stroke-linejoin:round;stroke-miterlimit:10;stroke-dasharray:none;stroke-opacity:1"
             d="M 0,0 127.007,0" /></g></g></g></g></svg>