<?xml version="1.0" encoding="UTF-8" standalone="no"?>
<!-- Created with Inkscape (http://www.inkscape.org/) -->

<svg
   xmlns:dc="http://purl.org/dc/elements/1.1/"
   xmlns:cc="http://creativecommons.org/ns#"
   xmlns:rdf="http://www.w3.org/1999/02/22-rdf-syntax-ns#"
   xmlns:svg="http://www.w3.org/2000/svg"
   xmlns="http://www.w3.org/2000/svg"
   xmlns:sodipodi="http://sodipodi.sourceforge.net/DTD/sodipodi-0.dtd"
   xmlns:inkscape="http://www.inkscape.org/namespaces/inkscape"
   width="170.84325mm"
   height="38.0135mm"
   viewBox="0 0 605.35009 134.6935"
   id="svg3564"
   version="1.1"
   inkscape:version="0.91 r13725"
   sodipodi:docname="horizontal_logo.svg">
  <defs
     id="defs3566">
    <clipPath
       clipPathUnits="userSpaceOnUse"
       id="clipPath132">
      <path
         d="m 0,5697.636 5697.636,0 L 5697.636,0 0,0 0,5697.636 Z"
         id="path134"
         inkscape:connector-curvature="0" />
    </clipPath>
  </defs>
  <sodipodi:namedview
     id="base"
     pagecolor="#ffffff"
     bordercolor="#666666"
     borderopacity="1.0"
     inkscape:pageopacity="0.0"
     inkscape:pageshadow="2"
     inkscape:zoom="0.98994949"
     inkscape:cx="376.63767"
     inkscape:cy="-168.12416"
     inkscape:document-units="px"
     inkscape:current-layer="layer1"
     showgrid="false"
     fit-margin-top="0"
     fit-margin-left="0"
     fit-margin-right="0"
     fit-margin-bottom="0"
     inkscape:window-width="1366"
     inkscape:window-height="744"
     inkscape:window-x="0"
     inkscape:window-y="24"
     inkscape:window-maximized="1" />
  <metadata
     id="metadata3569">
    <rdf:RDF>
      <cc:Work
         rdf:about="">
        <dc:format>image/svg+xml</dc:format>
        <dc:type
           rdf:resource="http://purl.org/dc/dcmitype/StillImage" />
        <dc:title></dc:title>
      </cc:Work>
    </rdf:RDF>
  </metadata>
  <g
     inkscape:label="Layer 1"
     inkscape:groupmode="layer"
     id="layer1"
     transform="translate(-0.18209887,-5.015475)">
    <g
       transform="matrix(0.25,0,0,-0.25,-423.9834,1286.4282)"
       id="g128">
      <g
         id="g130"
         clip-path="url(#clipPath132)">
        <g
           id="g136"
           transform="translate(1900.451,4754.1899)">
          <path
             d="m 0,0 c 0,0 -26.74,132.977 55.63,123.125 28.136,-3.365 61.994,-31.145 61.994,-31.145 0,0 -12.129,-16.14 -25.698,-24.458 C 68.799,53.344 37.744,52.884 37.744,52.884 l 0,-51.331 0.589,-103.193 0,-56.673 c 54.614,0 114.231,86.914 115.668,164.221 l 0.126,7.96 -0.011,172.603 c -1.437,77.307 -50.468,135.774 -96.55,158.07 -35.143,17.003 -66.898,17.92 -76.71,17.92 l 0.76,0 -0.5,0 -1.447,0 0.76,0 -1.519,0 0.759,0 -1.447,0 -0.5,0 0.759,0 c -9.811,0 -41.566,-0.917 -76.709,-17.92 -46.082,-22.296 -95.112,-80.763 -96.55,-158.07 l -0.011,-172.603 0.126,-7.96 c 1.438,-77.307 61.055,-164.221 115.668,-164.221 l 0,56.673 0.589,103.193 0,51.331 c 0,0 -31.055,0.46 -54.182,14.638 -13.569,8.318 -25.698,24.458 -25.698,24.458 0,0 33.858,27.78 61.994,31.145 C -13.921,132.977 -40.662,0 -40.662,0 L -20.331,-20.836 0,0 Z"
             style="fill:none;stroke:#292f3c;stroke-width:18;stroke-linecap:butt;stroke-linejoin:miter;stroke-miterlimit:10;stroke-dasharray:none;stroke-opacity:1"
             id="path138"
             inkscape:connector-curvature="0" />
        </g>
        <g
           id="g140"
           transform="translate(1821.8192,4931.0815)">
          <path
             d="m 0,0 -0.038,2.118 0,12.529 c 0,32.219 58.339,59.338 58.339,59.338 0,0 58.339,-27.119 58.339,-59.338 l 0,-12.529 0,-1.511"
             style="fill:none;stroke:#292f3c;stroke-width:18;stroke-linecap:butt;stroke-linejoin:miter;stroke-miterlimit:10;stroke-dasharray:none;stroke-opacity:1"
             id="path142"
             inkscape:connector-curvature="0" />
        </g>
        <g
           id="g144"
           transform="translate(2054.7607,4880.4243)">
          <path
             d="m 0,0 c -10.278,2.342 -19.847,6.462 -25.926,10.163 -17.778,10.823 -40.629,35.836 -74.392,39.874 -30.889,3.694 -50.789,-7.618 -66.283,-23.53 l -8.199,-8.5 -8.2,8.5 c -15.494,15.912 -35.394,27.224 -66.283,23.53 -33.763,-4.038 -56.614,-29.051 -74.392,-39.874 C -329.754,6.462 -339.322,2.342 -349.601,0"
             style="fill:none;stroke:#292f3c;stroke-width:18;stroke-linecap:butt;stroke-linejoin:miter;stroke-miterlimit:10;stroke-dasharray:none;stroke-opacity:1"
             id="path146"
             inkscape:connector-curvature="0" />
        </g>
        <g
           id="g148"
           transform="translate(3958.9644,4723.4658)">
          <path
             d="m 0,0 c -17.6,7.6 -33.6,19.199 -48.399,33.999 l 20,19.6 c 24.399,-24.8 53.598,-37.6 86.798,-37.6 41.2,0 69.199,22.4 69.199,55.6 l 0,0.799 c 0,14.401 -4,24.4 -13.6,32.4 -11.199,9.2 -30.799,17.2 -59.999,23.599 -32.399,6.8 -53.599,15.201 -67.599,26.4 -14.799,12 -22,28 -22,48.8 l 0,0.799 c 0,10 2,19.6 6.401,28.4 4,8.8 10,16.8 17.599,23.6 16,13.599 37.6,21.2 61.2,21.2 15.999,0 31.999,-3.2 47.598,-8.8 14,-5.601 27.2,-13.2 40,-23.6 l -17.599,-21.599 c -21.601,17.199 -45.201,25.999 -69.999,25.999 -16.8,0 -32,-5.2 -42.4,-14.4 -9.6,-8.4 -14.8,-19.2 -14.8,-30.8 l 0,-0.799 c 0,-12.401 3.2,-20 11.6,-26.8 10.399,-8.4 28.399,-15.199 56.399,-21.199 33.999,-7.601 56.799,-16.8 71.999,-29.6 15.6,-13.2 23.2,-30.8 23.2,-53.6 l 0,-0.799 c 0,-23.6 -9.6,-44.8 -27.2,-59.999 C 110.798,-4 86.398,-12 58.399,-12 37.6,-12 18,-8 0,0"
             style="fill:#2a2f3b;fill-opacity:1;fill-rule:nonzero;stroke:none"
             id="path150"
             inkscape:connector-curvature="0" />
        </g>
        <g
           id="g152"
           transform="translate(3958.9644,4723.4658)">
          <path
             d="m 0,0 c -17.6,7.6 -33.6,19.199 -48.399,33.999 l 20,19.6 c 24.399,-24.8 53.598,-37.6 86.798,-37.6 41.2,0 69.199,22.4 69.199,55.6 l 0,0.799 c 0,14.401 -4,24.4 -13.6,32.4 -11.199,9.2 -30.799,17.2 -59.999,23.599 -32.399,6.8 -53.599,15.201 -67.599,26.4 -14.799,12 -22,28 -22,48.8 l 0,0.799 c 0,10 2,19.6 6.401,28.4 4,8.8 10,16.8 17.599,23.6 16,13.599 37.6,21.2 61.2,21.2 15.999,0 31.999,-3.2 47.598,-8.8 14,-5.601 27.2,-13.2 40,-23.6 l -17.599,-21.599 c -21.601,17.199 -45.201,25.999 -69.999,25.999 -16.8,0 -32,-5.2 -42.4,-14.4 -9.6,-8.4 -14.8,-19.2 -14.8,-30.8 l 0,-0.799 c 0,-12.401 3.2,-20 11.6,-26.8 10.399,-8.4 28.399,-15.199 56.399,-21.199 33.999,-7.601 56.799,-16.8 71.999,-29.6 15.6,-13.2 23.2,-30.8 23.2,-53.6 l 0,-0.799 c 0,-23.6 -9.6,-44.8 -27.2,-59.999 C 110.798,-4 86.398,-12 58.399,-12 37.6,-12 18,-8 0,0 Z"
             style="fill:none;stroke:#2a2f3b;stroke-width:7;stroke-linecap:butt;stroke-linejoin:miter;stroke-miterlimit:10;stroke-dasharray:none;stroke-opacity:1"
             id="path154"
             inkscape:connector-curvature="0" />
        </g>
        <g
           id="g156"
           transform="translate(3707.3638,4958.2617)">
          <path
             d="m 0,0 -104.798,-241.996 -30,0 L -15.199,38 15.2,38 l 119.599,-279.996 -30,0 L 0,0 Z"
             style="fill:#2a2f3b;fill-opacity:1;fill-rule:nonzero;stroke:none"
             id="path158"
             inkscape:connector-curvature="0" />
        </g>
        <g
           id="g160"
           transform="translate(3707.3638,4958.2617)">
          <path
             d="m 0,0 -104.798,-241.996 -30,0 L -15.199,38 15.2,38 l 119.599,-279.996 -30,0 L 0,0 Z"
             style="fill:none;stroke:#2a2f3b;stroke-width:7;stroke-linecap:butt;stroke-linejoin:miter;stroke-miterlimit:10;stroke-dasharray:none;stroke-opacity:1"
             id="path162"
             inkscape:connector-curvature="0" />
        </g>
        <g
           id="g164"
           transform="translate(3334.3687,4968.2617)">
          <path
             d="m 0,0 0,-97.998 115.998,0 0,-28 -115.998,0 0,-97.998 155.997,0 0,-28 -183.997,0 0,279.996 183.997,0 0,-28 L 0,0 Z"
             style="fill:#2a2f3b;fill-opacity:1;fill-rule:nonzero;stroke:none"
             id="path166"
             inkscape:connector-curvature="0" />
        </g>
        <g
           id="g168"
           transform="translate(3334.3687,4968.2617)">
          <path
             d="m 0,0 0,-97.998 115.998,0 0,-28 -115.998,0 0,-97.998 155.997,0 0,-28 -183.997,0 0,279.996 183.997,0 0,-28 L 0,0 Z"
             style="fill:none;stroke:#2a2f3b;stroke-width:7;stroke-linecap:butt;stroke-linejoin:miter;stroke-miterlimit:10;stroke-dasharray:none;stroke-opacity:1"
             id="path170"
             inkscape:connector-curvature="0" />
        </g>
        <g
           id="g172"
           transform="translate(3176.5669,4716.2656)">
          <path
             d="m 0,0 -34.399,0 -161.598,239.597 0,-239.597 -27.999,0 0,279.996 34.399,0 161.598,-239.597 0,239.597 27.999,0 L 0,0 Z"
             style="fill:#2a2f3b;fill-opacity:1;fill-rule:nonzero;stroke:none"
             id="path174"
             inkscape:connector-curvature="0" />
        </g>
        <g
           id="g176"
           transform="translate(3176.5669,4716.2656)">
          <path
             d="m 0,0 -34.399,0 -161.598,239.597 0,-239.597 -27.999,0 0,279.996 34.399,0 161.598,-239.597 0,239.597 27.999,0 L 0,0 Z"
             style="fill:none;stroke:#2a2f3b;stroke-width:7;stroke-linecap:butt;stroke-linejoin:miter;stroke-miterlimit:10;stroke-dasharray:none;stroke-opacity:1"
             id="path178"
             inkscape:connector-curvature="0" />
        </g>
        <g
           id="g180"
           transform="translate(2677.9736,4968.2617)">
          <path
             d="m 0,0 0,-97.998 115.998,0 0,-28 -115.998,0 0,-97.998 155.998,0 0,-28 -183.998,0 0,279.996 183.998,0 0,-28 L 0,0 Z"
             style="fill:#2a2f3b;fill-opacity:1;fill-rule:nonzero;stroke:none"
             id="path182"
             inkscape:connector-curvature="0" />
        </g>
        <g
           id="g184"
           transform="translate(2677.9736,4968.2617)">
          <path
             d="m 0,0 0,-97.998 115.998,0 0,-28 -115.998,0 0,-97.998 155.998,0 0,-28 -183.998,0 0,279.996 183.998,0 0,-28 L 0,0 Z"
             style="fill:none;stroke:#2a2f3b;stroke-width:7;stroke-linecap:butt;stroke-linejoin:miter;stroke-miterlimit:10;stroke-dasharray:none;stroke-opacity:1"
             id="path186"
             inkscape:connector-curvature="0" />
        </g>
        <g
           id="g188"
           transform="translate(2422.9731,4958.2617)">
          <path
             d="m 0,0 -104.798,-241.996 -30,0 L -15.2,38 l 30.4,0 119.598,-279.996 -29.999,0 L 0,0 Z"
             style="fill:#2a2f3b;fill-opacity:1;fill-rule:nonzero;stroke:none"
             id="path190"
             inkscape:connector-curvature="0" />
        </g>
        <g
           id="g192"
           transform="translate(2422.9731,4958.2617)">
          <path
             d="m 0,0 -104.798,-241.996 -30,0 L -15.2,38 l 30.4,0 119.598,-279.996 -29.999,0 L 0,0 Z"
             style="fill:none;stroke:#2a2f3b;stroke-width:7;stroke-linecap:butt;stroke-linejoin:miter;stroke-miterlimit:10;stroke-dasharray:none;stroke-opacity:1"
             id="path194"
             inkscape:connector-curvature="0" />
        </g>
      </g>
    </g>
  </g>
</svg>
