<?xml version="1.0" encoding="UTF-8" standalone="no"?>
<svg
   xmlns:dc="http://purl.org/dc/elements/1.1/"
   xmlns:cc="http://creativecommons.org/ns#"
   xmlns:rdf="http://www.w3.org/1999/02/22-rdf-syntax-ns#"
   xmlns:svg="http://www.w3.org/2000/svg"
   xmlns="http://www.w3.org/2000/svg"
   version="1.1"
   id="svg4298"
   viewBox="0 0 656.73123 421.665"
   height="119.00323mm"
   width="185.34415mm">
  <defs
     id="defs4300">
    <clipPath
       id="clipPath144"
       clipPathUnits="userSpaceOnUse">
      <path
         id="path146"
         d="m 0,850.39 850.39,0 L 850.39,0 0,0 0,850.39 Z" />
    </clipPath>
  </defs>
  <metadata
     id="metadata4303">
    <rdf:RDF>
      <cc:Work
         rdf:about="">
        <dc:format>image/svg+xml</dc:format>
        <dc:type
           rdf:resource="http://purl.org/dc/dcmitype/StillImage" />
        <dc:title></dc:title>
      </cc:Work>
    </rdf:RDF>
  </metadata>
  <g
     transform="translate(-40.20581,-218.67258)"
     id="layer1">
    <g
       id="g140"
       transform="matrix(1.25,0,0,-1.25,-157.05744,1015.1537)">
      <g
         clip-path="url(#clipPath144)"
         id="g142">
        <g
           transform="translate(634.8496,319.8529)"
           id="g148">
          <path
             id="path150"
             style="fill:none;stroke:#f8f9fa;stroke-width:40;stroke-linecap:butt;stroke-linejoin:round;stroke-miterlimit:10;stroke-dasharray:none;stroke-opacity:1"
             d="m 0,0 -428.692,0 c -15.656,0 -28.347,12.691 -28.347,28.347 l 0,240.638 c 0,7.828 3.173,14.914 8.303,20.044 5.129,5.13 12.216,8.303 20.044,8.303 l 428.692,0 c 15.655,0 28.346,-12.691 28.346,-28.347 l 0,-240.638 C 28.346,12.691 15.655,0 0,0 Z" />
        </g>
        <g
           transform="translate(187.7817,597.8822)"
           id="g152">
          <path
             id="path154"
             style="fill:none;stroke:#f8f9fa;stroke-width:40;stroke-linecap:round;stroke-linejoin:round;stroke-miterlimit:10;stroke-dasharray:none;stroke-opacity:1"
             d="m 0,0 219.611,-146.333 c 7.845,-5.671 18.424,-5.738 26.34,-0.167 L 467.696,0" />
        </g>
      </g>
    </g>
  </g>
</svg>
