<?xml version="1.0" encoding="UTF-8" standalone="no"?>
<!-- Created with Inkscape (http://www.inkscape.org/) -->

<svg
   xmlns:dc="http://purl.org/dc/elements/1.1/"
   xmlns:cc="http://creativecommons.org/ns#"
   xmlns:rdf="http://www.w3.org/1999/02/22-rdf-syntax-ns#"
   xmlns:svg="http://www.w3.org/2000/svg"
   xmlns="http://www.w3.org/2000/svg"
   xmlns:sodipodi="http://sodipodi.sourceforge.net/DTD/sodipodi-0.dtd"
   xmlns:inkscape="http://www.inkscape.org/namespaces/inkscape"
   width="193.17688mm"
   height="149.86777mm"
   viewBox="0 0 684.48501 531.02752"
   id="svg4302"
   version="1.1"
   inkscape:version="0.91 r13725"
   sodipodi:docname="icon_Dashboard.svg">
  <defs
     id="defs4304">
    <clipPath
       clipPathUnits="userSpaceOnUse"
       id="clipPath88">
      <path
         d="m 0,850.39 850.39,0 L 850.39,0 0,0 0,850.39 Z"
         id="path90"
         inkscape:connector-curvature="0" />
    </clipPath>
  </defs>
  <sodipodi:namedview
     id="base"
     pagecolor="#ffffff"
     bordercolor="#666666"
     borderopacity="1.0"
     inkscape:pageopacity="0.0"
     inkscape:pageshadow="2"
     inkscape:zoom="0.35"
     inkscape:cx="-181.32893"
     inkscape:cy="34.085175"
     inkscape:document-units="px"
     inkscape:current-layer="layer1"
     showgrid="false"
     fit-margin-top="0"
     fit-margin-left="0"
     fit-margin-right="0"
     fit-margin-bottom="0"
     inkscape:window-width="1366"
     inkscape:window-height="744"
     inkscape:window-x="0"
     inkscape:window-y="24"
     inkscape:window-maximized="1" />
  <metadata
     id="metadata4307">
    <rdf:RDF>
      <cc:Work
         rdf:about="">
        <dc:format>image/svg+xml</dc:format>
        <dc:type
           rdf:resource="http://purl.org/dc/dcmitype/StillImage" />
        <dc:title></dc:title>
      </cc:Work>
    </rdf:RDF>
  </metadata>
  <g
     inkscape:label="Layer 1"
     inkscape:groupmode="layer"
     id="layer1"
     transform="translate(-20.61464,-35.41988)">
    <g
       transform="matrix(1.25,0,0,-1.25,-163.08561,856.38438)"
       id="g84">
      <g
         id="g86"
         clip-path="url(#clipPath88)">
        <g
           id="g92"
           transform="translate(654.2012,243.9496)">
          <path
             d="m 0,0 -466.895,0 c -15.655,0 -28.346,12.69 -28.346,28.346 l 0,344.129 c 0,15.655 12.691,28.347 28.346,28.347 l 466.895,0 c 15.655,0 28.347,-12.692 28.347,-28.347 l 0,-344.129 C 28.347,12.69 15.655,0 0,0 Z"
             style="fill:none;stroke:#1d1d1b;stroke-width:24;stroke-linecap:butt;stroke-linejoin:round;stroke-miterlimit:10;stroke-dasharray:none;stroke-opacity:1"
             id="path94"
             inkscape:connector-curvature="0" />
        </g>
        <g
           id="g96"
           transform="translate(158.9604,559.0135)">
          <path
             d="M 0,0 523.587,1.932"
             style="fill:none;stroke:#1d1d1b;stroke-width:24;stroke-linecap:butt;stroke-linejoin:miter;stroke-miterlimit:10;stroke-dasharray:none;stroke-opacity:1"
             id="path98"
             inkscape:connector-curvature="0" />
        </g>
        <g
           id="g100"
           transform="translate(616.6191,489.5956)">
          <path
             d="M 0,0 -57.283,0"
             style="fill:none;stroke:#1d1d1b;stroke-width:22;stroke-linecap:round;stroke-linejoin:round;stroke-miterlimit:10;stroke-dasharray:none;stroke-opacity:1"
             id="path102"
             inkscape:connector-curvature="0" />
        </g>
        <g
           id="g104"
           transform="translate(493.6836,489.5956)">
          <path
             d="M 0,0 -265.795,0"
             style="fill:none;stroke:#1d1d1b;stroke-width:22;stroke-linecap:round;stroke-linejoin:round;stroke-miterlimit:10;stroke-dasharray:none;stroke-opacity:1"
             id="path106"
             inkscape:connector-curvature="0" />
        </g>
        <g
           id="g108"
           transform="translate(618.4277,430.954)">
          <path
             d="M 0,0 -390.539,0"
             style="fill:none;stroke:#1d1d1b;stroke-width:22;stroke-linecap:round;stroke-linejoin:round;stroke-miterlimit:10;stroke-dasharray:none;stroke-opacity:1"
             id="path110"
             inkscape:connector-curvature="0" />
        </g>
        <g
           id="g112"
           transform="translate(617.2559,372.5355)">
          <path
             d="M 0,0 -389.367,0"
             style="fill:none;stroke:#1d1d1b;stroke-width:22;stroke-linecap:round;stroke-linejoin:round;stroke-miterlimit:10;stroke-dasharray:none;stroke-opacity:1"
             id="path114"
             inkscape:connector-curvature="0" />
        </g>
        <g
           id="g116"
           transform="translate(621.3105,372.5355)">
          <path
             d="M 0,0 -393.422,0"
             style="fill:none;stroke:#1d1d1b;stroke-width:22;stroke-linecap:round;stroke-linejoin:round;stroke-miterlimit:10;stroke-dasharray:none;stroke-opacity:1"
             id="path118"
             inkscape:connector-curvature="0" />
        </g>
        <g
           id="g120"
           transform="translate(620.1387,314.1176)">
          <path
             d="M 0,0 -392.25,0"
             style="fill:none;stroke:#1d1d1b;stroke-width:22;stroke-linecap:round;stroke-linejoin:round;stroke-miterlimit:10;stroke-dasharray:none;stroke-opacity:1"
             id="path122"
             inkscape:connector-curvature="0" />
        </g>
        <g
           id="g124"
           transform="translate(210.4653,600.5404)">
          <path
             d="m 0,0 c 0,-1.174 -0.952,-2.126 -2.126,-2.126 -1.174,0 -2.126,0.952 -2.126,2.126 0,1.174 0.952,2.126 2.126,2.126 C -0.952,2.126 0,1.174 0,0 Z"
             style="fill:none;stroke:#1d1d1b;stroke-width:21.87800026;stroke-linecap:round;stroke-linejoin:round;stroke-miterlimit:10;stroke-dasharray:none;stroke-opacity:1"
             id="path126"
             inkscape:connector-curvature="0" />
        </g>
        <g
           id="g128"
           transform="translate(636.9307,600.5404)">
          <path
             d="m 0,0 c 0,-1.174 -0.952,-2.126 -2.126,-2.126 -1.175,0 -2.126,0.952 -2.126,2.126 0,1.174 0.951,2.126 2.126,2.126 C -0.952,2.126 0,1.174 0,0 Z"
             style="fill:none;stroke:#1d1d1b;stroke-width:21.87800026;stroke-linecap:round;stroke-linejoin:round;stroke-miterlimit:10;stroke-dasharray:none;stroke-opacity:1"
             id="path130"
             inkscape:connector-curvature="0" />
        </g>
        <g
           id="g132"
           transform="translate(593.9307,600.5404)">
          <path
             d="m 0,0 c 0,-1.174 -0.952,-2.126 -2.126,-2.126 -1.175,0 -2.126,0.952 -2.126,2.126 0,1.174 0.951,2.126 2.126,2.126 C -0.952,2.126 0,1.174 0,0 Z"
             style="fill:none;stroke:#1d1d1b;stroke-width:21.87800026;stroke-linecap:round;stroke-linejoin:round;stroke-miterlimit:10;stroke-dasharray:none;stroke-opacity:1"
             id="path134"
             inkscape:connector-curvature="0" />
        </g>
        <g
           id="g136"
           transform="translate(550.9307,600.5404)">
          <path
             d="m 0,0 c 0,-1.174 -0.952,-2.126 -2.126,-2.126 -1.175,0 -2.126,0.952 -2.126,2.126 0,1.174 0.951,2.126 2.126,2.126 C -0.952,2.126 0,1.174 0,0 Z"
             style="fill:none;stroke:#1d1d1b;stroke-width:21.87800026;stroke-linecap:round;stroke-linejoin:round;stroke-miterlimit:10;stroke-dasharray:none;stroke-opacity:1"
             id="path138"
             inkscape:connector-curvature="0" />
        </g>
      </g>
    </g>
  </g>
</svg>
