<?xml version="1.0" encoding="UTF-8" standalone="no"?>
<svg
   xmlns:dc="http://purl.org/dc/elements/1.1/"
   xmlns:cc="http://creativecommons.org/ns#"
   xmlns:rdf="http://www.w3.org/1999/02/22-rdf-syntax-ns#"
   xmlns:svg="http://www.w3.org/2000/svg"
   xmlns="http://www.w3.org/2000/svg"
   version="1.1"
   id="svg4207"
   viewBox="0 0 509.60478 462.66861"
   height="130.57536mm"
   width="143.82179mm">
  <defs
     id="defs4209">
    <clipPath
       id="clipPath28"
       clipPathUnits="userSpaceOnUse">
      <path
         id="path30"
         d="m 0,850.39 850.39,0 L 850.39,0 0,0 0,850.39 Z" />
    </clipPath>
  </defs>
  <metadata
     id="metadata4212">
    <rdf:RDF>
      <cc:Work
         rdf:about="">
        <dc:format>image/svg+xml</dc:format>
        <dc:type
           rdf:resource="http://purl.org/dc/dcmitype/StillImage" />
        <dc:title></dc:title>
      </cc:Work>
    </rdf:RDF>
  </metadata>
  <g
     transform="translate(-90.911886,-218.1708)"
     id="layer1">
    <g
       id="g24"
       transform="matrix(1.25,0,0,-1.25,-185.86378,1019.7188)">
      <g
         clip-path="url(#clipPath28)"
         id="g26">
        <g
           transform="translate(235.4546,285.3002)"
           id="g32">
          <path
             id="path34"
             style="fill:none;stroke:#f8f9fa;stroke-width:28;stroke-linecap:round;stroke-linejoin:miter;stroke-miterlimit:10;stroke-dasharray:none;stroke-opacity:1"
             d="M 0,0 C 9.134,54.602 43.196,101.198 90.616,128.678" />
        </g>
        <g
           transform="translate(615.0703,285.3002)"
           id="g36">
          <path
             id="path38"
             style="fill:none;stroke:#f8f9fa;stroke-width:28;stroke-linecap:round;stroke-linejoin:miter;stroke-miterlimit:10;stroke-dasharray:none;stroke-opacity:1"
             d="M 0,0 C -9.134,54.602 -43.195,101.198 -90.616,128.678" />
        </g>
        <g
           transform="translate(346.3208,493.5614)"
           id="g40">
          <path
             id="path42"
             style="fill:none;stroke:#f8f9fa;stroke-width:28;stroke-linecap:butt;stroke-linejoin:miter;stroke-miterlimit:10;stroke-dasharray:none;stroke-opacity:1"
             d="m 0,0 c 0.65,-34.961 22.824,-61.402 43.664,-71.486 15.893,-7.689 30.254,-8.103 34.691,-8.103 l -0.344,0 0.227,0 0.654,0 -0.344,0 0.687,0 -0.343,0 0.654,0 0.227,0 -0.344,0 c 4.437,0 18.798,0.414 34.691,8.103 20.84,10.084 43.014,36.525 43.664,71.486 l 0.005,3.39 -0.005,50.697 c -0.65,34.961 -22.824,61.402 -43.664,71.486 -15.893,7.689 -30.254,8.104 -34.691,8.104 l 0.344,0 -0.227,0 -0.654,0 0.343,0 -0.687,0 0.344,0 -0.654,0 -0.227,0 0.344,0 c -4.437,0 -18.798,-0.415 -34.691,-8.104 C 22.824,115.489 0.65,89.048 0,54.087 L -0.004,3.39 0,0 Z" />
        </g>
      </g>
    </g>
  </g>
</svg>
