<?xml version="1.0" encoding="UTF-8" standalone="no"?>
<!-- Created with Inkscape (http://www.inkscape.org/) -->

<svg
   xmlns:dc="http://purl.org/dc/elements/1.1/"
   xmlns:cc="http://creativecommons.org/ns#"
   xmlns:rdf="http://www.w3.org/1999/02/22-rdf-syntax-ns#"
   xmlns:svg="http://www.w3.org/2000/svg"
   xmlns="http://www.w3.org/2000/svg"
   xmlns:sodipodi="http://sodipodi.sourceforge.net/DTD/sodipodi-0.dtd"
   xmlns:inkscape="http://www.inkscape.org/namespaces/inkscape"
   width="203.91249mm"
   height="166.97757mm"
   viewBox="0 0 722.52458 591.6528"
   id="svg3563"
   version="1.1"
   inkscape:version="0.91 r13725"
   sodipodi:docname="Aeneas_logo.svg">
  <defs
     id="defs3565">
    <clipPath
       clipPathUnits="userSpaceOnUse"
       id="clipPath64">
      <path
         d="m 0,5697.636 5697.636,0 L 5697.636,0 0,0 0,5697.636 Z"
         id="path66"
         fill="#f8f9fa"
         fill-opacity="1"
         inkscape:connector-curvature="0" />
    </clipPath>
  </defs>
  <sodipodi:namedview
     id="base"
     pagecolor="#f8f9fa"
     bordercolor="#f8f9fa"
     borderopacity="1.0"
     inkscape:pageopacity="0.0"
     inkscape:pageshadow="2"
     inkscape:zoom="0.35355339"
     inkscape:cx="331.06668"
     inkscape:cy="46.127025"
     inkscape:document-units="px"
     inkscape:current-layer="svg3563"
     showgrid="false"
     inkscape:window-width="1366"
     inkscape:window-height="744"
     inkscape:window-x="0"
     inkscape:window-y="24"
     inkscape:window-maximized="1"
     fit-margin-top="0"
     fit-margin-left="0"
     fit-margin-right="0"
     fit-margin-bottom="0" />
  <metadata
     id="metadata3568">
    <rdf:RDF>
      <cc:Work
         rdf:about="">
        <dc:format>image/svg+xml</dc:format>
        <dc:type
           fill="#f8f9fa"
           rdf:resource="http://purl.org/dc/dcmitype/StillImage" />
        <dc:title></dc:title>
      </cc:Work>
    </rdf:RDF>
  </metadata>
  <g
     inkscape:label="Layer 1"
     inkscape:groupmode="layer"
     id="layer1"
     transform="translate(-9.2616666,-4.1742239)" />
  <g
     transform="matrix(0.375,0,0,-0.375,-729.30872,1363.3381)"
     id="g62"
     fill="#f8f9fa"
     clip-path="url(#clipPath64)">
    <g
       id="g68"
       transform="translate(3709.4575,2076.3274)">
      <path
         d="m 0,0 c -17.601,7.6 -33.6,19.199 -48.399,33.999 l 19.999,19.6 c 24.4,-24.8 53.599,-37.6 86.798,-37.6 41.2,0 69.2,22.4 69.2,55.6 l 0,0.799 c 0,14.401 -4,24.4 -13.6,32.4 -11.2,9.2 -30.8,17.2 -59.999,23.599 -32.399,6.8 -53.6,15.201 -67.6,26.4 -14.799,12 -21.999,28 -21.999,48.8 l 0,0.799 c 0,10 2,19.6 6.4,28.4 4,8.8 10,16.8 17.599,23.6 16,13.599 37.6,21.2 61.2,21.2 16,0 32,-3.2 47.599,-8.8 14,-5.601 27.199,-13.2 39.999,-23.6 l -17.599,-21.599 c -21.6,17.199 -45.2,25.999 -69.999,25.999 -16.8,0 -31.999,-5.2 -42.4,-14.4 -9.599,-8.4 -14.8,-19.2 -14.8,-30.8 l 0,-0.799 c 0,-12.401 3.201,-20 11.6,-26.8 10.4,-8.4 28.4,-15.199 56.399,-21.199 34,-7.601 56.8,-16.8 71.999,-29.6 15.6,-13.2 23.201,-30.8 23.201,-53.6 l 0,-0.799 c 0,-23.6 -9.601,-44.8 -27.201,-59.999 C 110.798,-4 86.398,-12 58.398,-12 37.599,-12 17.999,-8 0,0"
         style="fill:#f8f9fa;fill-opacity:1;fill-rule:nonzero;stroke:none"
         id="path70"
         inkscape:connector-curvature="0" />
    </g>
    <g
       id="g72"
       transform="translate(3709.4575,2076.3274)">
      <path
         d="m 0,0 c -17.601,7.6 -33.6,19.199 -48.399,33.999 l 19.999,19.6 c 24.4,-24.8 53.599,-37.6 86.798,-37.6 41.2,0 69.2,22.4 69.2,55.6 l 0,0.799 c 0,14.401 -4,24.4 -13.6,32.4 -11.2,9.2 -30.8,17.2 -59.999,23.599 -32.399,6.8 -53.6,15.201 -67.6,26.4 -14.799,12 -21.999,28 -21.999,48.8 l 0,0.799 c 0,10 2,19.6 6.4,28.4 4,8.8 10,16.8 17.599,23.6 16,13.599 37.6,21.2 61.2,21.2 16,0 32,-3.2 47.599,-8.8 14,-5.601 27.199,-13.2 39.999,-23.6 l -17.599,-21.599 c -21.6,17.199 -45.2,25.999 -69.999,25.999 -16.8,0 -31.999,-5.2 -42.4,-14.4 -9.599,-8.4 -14.8,-19.2 -14.8,-30.8 l 0,-0.799 c 0,-12.401 3.201,-20 11.6,-26.8 10.4,-8.4 28.4,-15.199 56.399,-21.199 34,-7.601 56.8,-16.8 71.999,-29.6 15.6,-13.2 23.201,-30.8 23.201,-53.6 l 0,-0.799 c 0,-23.6 -9.601,-44.8 -27.201,-59.999 C 110.798,-4 86.398,-12 58.398,-12 37.599,-12 17.999,-8 0,0 Z"
         style="fill:none;stroke:#f8f9fa;stroke-width:13;stroke-linecap:butt;stroke-linejoin:miter;stroke-miterlimit:10;stroke-dasharray:none;stroke-opacity:1"
         id="path74"
         inkscape:connector-curvature="0" />
    </g>
    <g
       id="g76"
       transform="translate(3442.8569,2311.1233)">
      <path
         d="m 0,0 -104.799,-241.996 -29.999,0 L -15.2,38 l 30.399,0 119.599,-279.996 -29.999,0 L 0,0 Z"
         style="fill:#f8f9fa;fill-opacity:1;fill-rule:nonzero;stroke:none"
         id="path78"
         inkscape:connector-curvature="0" />
    </g>
    <g
       id="g80"
       transform="translate(3442.8569,2311.1233)">
      <path
         d="m 0,0 -104.799,-241.996 -29.999,0 L -15.2,38 l 30.399,0 119.599,-279.996 -29.999,0 L 0,0 Z"
         style="fill:none;stroke:#f8f9fa;stroke-width:13;stroke-linecap:butt;stroke-linejoin:miter;stroke-miterlimit:10;stroke-dasharray:none;stroke-opacity:1"
         id="path82"
         inkscape:connector-curvature="0" />
    </g>
    <g
       id="g84"
       transform="translate(3059.8608,2321.1233)">
      <path
         d="m 0,0 0,-97.998 115.998,0 0,-28 -115.998,0 0,-97.998 155.998,0 0,-28 -183.998,0 0,279.996 183.998,0 0,-28 L 0,0 Z"
         style="fill:#f8f9fa;fill-opacity:1;fill-rule:nonzero;stroke:none"
         id="path86"
         inkscape:connector-curvature="0" />
    </g>
    <g
       id="g88"
       transform="translate(3059.8608,2321.1233)">
      <path
         d="m 0,0 0,-97.998 115.998,0 0,-28 -115.998,0 0,-97.998 155.998,0 0,-28 -183.998,0 0,279.996 183.998,0 0,-28 L 0,0 Z"
         style="fill:none;stroke:#f8f9fa;stroke-width:13;stroke-linecap:butt;stroke-linejoin:miter;stroke-miterlimit:10;stroke-dasharray:none;stroke-opacity:1"
         id="path90"
         inkscape:connector-curvature="0" />
    </g>
    <g
       id="g92"
       transform="translate(2877.0601,2069.1272)">
      <path
         d="m 0,0 -34.399,0 -161.598,239.597 0,-239.597 -28,0 0,279.996 34.4,0 L -28,40.399 l 0,239.597 28,0 L 0,0 Z"
         style="fill:#f8f9fa;fill-opacity:1;fill-rule:nonzero;stroke:none"
         id="path94"
         inkscape:connector-curvature="0" />
    </g>
    <g
       id="g96"
       transform="translate(2877.0601,2069.1272)">
      <path
         d="m 0,0 -34.399,0 -161.598,239.597 0,-239.597 -28,0 0,279.996 34.4,0 L -28,40.399 l 0,239.597 28,0 L 0,0 Z"
         style="fill:none;stroke:#f8f9fa;stroke-width:13;stroke-linecap:butt;stroke-linejoin:miter;stroke-miterlimit:10;stroke-dasharray:none;stroke-opacity:1"
         id="path98"
         inkscape:connector-curvature="0" />
    </g>
    <g
       id="g100"
       transform="translate(2363.4663,2321.1233)">
      <path
         d="m 0,0 0,-97.998 115.998,0 0,-28 -115.998,0 0,-97.998 155.998,0 0,-28 -183.998,0 0,279.996 183.998,0 0,-28 L 0,0 Z"
         style="fill:#f8f9fa;fill-opacity:1;fill-rule:nonzero;stroke:none"
         id="path102"
         inkscape:connector-curvature="0" />
    </g>
    <g
       id="g104"
       transform="translate(2363.4663,2321.1233)">
      <path
         d="m 0,0 0,-97.998 115.998,0 0,-28 -115.998,0 0,-97.998 155.998,0 0,-28 -183.998,0 0,279.996 183.998,0 0,-28 L 0,0 Z"
         style="fill:none;stroke:#f8f9fa;stroke-width:13;stroke-linecap:butt;stroke-linejoin:miter;stroke-miterlimit:10;stroke-dasharray:none;stroke-opacity:1"
         id="path106"
         inkscape:connector-curvature="0" />
    </g>
    <g
       id="g108"
       transform="translate(2089.4658,2311.1233)">
      <path
         d="m 0,0 -104.798,-241.996 -30,0 L -15.2,38 l 30.4,0 119.598,-279.996 -29.999,0 L 0,0 Z"
         style="fill:#f8f9fa;fill-opacity:1;fill-rule:nonzero;stroke:none"
         id="path110"
         inkscape:connector-curvature="0" />
    </g>
    <g
       id="g112"
       transform="translate(2089.4658,2311.1233)">
      <path
         d="m 0,0 -104.798,-241.996 -30,0 L -15.2,38 l 30.4,0 119.598,-279.996 -29.999,0 L 0,0 Z"
         style="fill:none;stroke:#f8f9fa;stroke-width:13;stroke-linecap:butt;stroke-linejoin:miter;stroke-miterlimit:10;stroke-dasharray:none;stroke-opacity:1"
         id="path114"
         inkscape:connector-curvature="0" />
    </g>
    <g
       id="g116"
       transform="translate(2965.5229,2898.6462)">
      <path
         d="m 0,0 c 0,0 -53.48,265.955 111.261,246.25 56.271,-6.73 123.987,-62.289 123.987,-62.289 0,0 -24.258,-32.28 -51.394,-48.916 C 137.598,106.689 75.487,105.768 75.487,105.768 l 0,-102.661 1.179,-206.387 0,-113.347 c 109.228,0 228.461,173.83 231.336,328.443 l 0.252,15.92 -0.022,345.206 c -2.875,154.614 -100.936,271.547 -193.1,316.14 -70.285,34.007 -133.796,35.84 -153.418,35.84 l 1.518,0 -1,0 -2.893,0 1.518,0 -3.038,0 1.52,0 -2.895,0 -1,0 1.52,0 c -19.623,0 -83.133,-1.833 -153.42,-35.84 -92.163,-44.593 -190.225,-161.526 -193.1,-316.14 l -0.021,-345.206 0.252,-15.92 c 2.875,-154.613 122.108,-328.443 231.336,-328.443 l 0,113.347 1.178,206.387 0,102.661 c 0,0 -62.11,0.921 -108.365,29.277 -27.137,16.636 -51.395,48.916 -51.395,48.916 0,0 67.716,55.559 123.988,62.289 C -27.843,265.955 -81.323,0 -81.323,0 L -40.661,-41.671 0,0 Z"
         style="fill:none;stroke:#f8f9fa;stroke-width:24;stroke-linecap:butt;stroke-linejoin:miter;stroke-miterlimit:10;stroke-dasharray:none;stroke-opacity:1"
         id="path118"
         inkscape:connector-curvature="0" />
    </g>
    <g
       id="g120"
       transform="translate(2808.2588,3252.4299)">
      <path
         d="m 0,0 -0.076,4.237 0,25.056 c 0,64.44 116.678,118.678 116.678,118.678 0,0 116.677,-54.238 116.677,-118.678 l 0,-25.056 0.002,-3.023"
         style="fill:none;stroke:#f8f9fa;stroke-width:24;stroke-linecap:butt;stroke-linejoin:miter;stroke-miterlimit:10;stroke-dasharray:none;stroke-opacity:1"
         id="path122"
         inkscape:connector-curvature="0" />
    </g>
    <g
       id="g124"
       transform="translate(3274.4614,3151.116)">
      <path
         d="m 0,0 c -20.557,4.683 -39.693,12.924 -51.851,20.325 -35.555,21.646 -81.258,71.671 -148.785,79.748 -61.777,7.389 -101.577,-15.236 -132.564,-47.059 l -16.4,-17 -16.4,17 c -30.987,31.823 -70.787,54.448 -132.564,47.059 C -566.09,91.996 -611.793,41.971 -647.349,20.325 -659.507,12.924 -678.644,4.683 -699.2,0"
         style="fill:none;stroke:#f8f9fa;stroke-width:16;stroke-linecap:butt;stroke-linejoin:miter;stroke-miterlimit:10;stroke-dasharray:none;stroke-opacity:1"
         id="path126"
         inkscape:connector-curvature="0" />
    </g>
  </g>
</svg>
